<svg xmlns="http://www.w3.org/2000/svg" width="1200" height="630" viewBox="0 0 1200 630">
  <defs>
    <linearGradient id="ink" x1="0%" y1="0%" x2="100%" y2="100%">
      <stop offset="0%" stop-color="#0d0a06"/>
      <stop offset="100%" stop-color="#181208"/>
    </linearGradient>
    <linearGradient id="brass" x1="0%" y1="0%" x2="100%" y2="0%">
      <stop offset="0%" stop-color="#a87b3a"/>
      <stop offset="50%" stop-color="#e6b870"/>
      <stop offset="100%" stop-color="#a87b3a"/>
    </linearGradient>
  </defs>
  <rect width="1200" height="630" fill="url(#ink)"/>
  <g stroke="#3a2a14" stroke-width="0.5" opacity="0.5">
    <line x1="0" y1="158" x2="1200" y2="158"/>
    <line x1="0" y1="316" x2="1200" y2="316"/>
    <line x1="0" y1="474" x2="1200" y2="474"/>
    <line x1="300" y1="0" x2="300" y2="630"/>
    <line x1="600" y1="0" x2="600" y2="630"/>
    <line x1="900" y1="0" x2="900" y2="630"/>
  </g>
  <rect x="80" y="80" width="1040" height="2" fill="url(#brass)"/>
  <rect x="80" y="548" width="1040" height="2" fill="url(#brass)"/>
  <g font-family="monospace">
    <text x="80" y="70" font-size="12" fill="#a87b3a" letter-spacing="6">NIGHT DESK · DEVNET · FX PERPETUALS</text>
    <text x="1120" y="70" font-size="12" fill="#a87b3a" letter-spacing="3" text-anchor="end">PYTH HERMES · LIVE</text>
  </g>
  <g font-family="serif" font-style="italic">
    <text x="80" y="240" font-size="92" fill="#e6b870">forex</text>
    <text x="240" y="240" font-size="92" fill="#a87b3a">for</text>
    <text x="80" y="320" font-size="120" font-weight="700" fill="#f5e9d0" font-style="normal" letter-spacing="-2">soul.</text>
  </g>
  <text x="80" y="380" font-family="monospace" font-size="22" fill="#c9b896" letter-spacing="2">FX perpetuals on Solana. Mystic. Margined. Settled.</text>
  <g transform="translate(80,420)" font-family="monospace" font-size="16" fill="#d4c5a8">
    <rect x="0" y="0" width="155" height="80" fill="#1a1208" stroke="#3a2a14"/>
    <text x="14" y="22" fill="#a87b3a" font-size="12">EUR/USD</text>
    <text x="14" y="48" fill="#f5e9d0" font-size="20" font-weight="700">1.0847</text>
    <text x="14" y="68" fill="#5af2a8" font-size="12">+0.12%</text>
    <rect x="170" y="0" width="155" height="80" fill="#1a1208" stroke="#3a2a14"/>
    <text x="184" y="22" fill="#a87b3a" font-size="12">GBP/USD</text>
    <text x="184" y="48" fill="#f5e9d0" font-size="20" font-weight="700">1.2734</text>
    <text x="184" y="68" fill="#ff5770" font-size="12">−0.08%</text>
    <rect x="340" y="0" width="155" height="80" fill="#1a1208" stroke="#3a2a14"/>
    <text x="354" y="22" fill="#a87b3a" font-size="12">USD/JPY</text>
    <text x="354" y="48" fill="#f5e9d0" font-size="20" font-weight="700">151.62</text>
    <text x="354" y="68" fill="#5af2a8" font-size="12">+0.34%</text>
    <rect x="510" y="0" width="155" height="80" fill="#1a1208" stroke="#3a2a14"/>
    <text x="524" y="22" fill="#a87b3a" font-size="12">USD/CHF</text>
    <text x="524" y="48" fill="#f5e9d0" font-size="20" font-weight="700">0.9018</text>
    <text x="524" y="68" fill="#5af2a8" font-size="12">+0.05%</text>
  </g>
  <g transform="translate(820,140)" stroke="#e6b870" stroke-width="2" fill="none">
    <polyline points="0,180 30,160 60,170 90,140 120,150 150,110 180,130 210,90 240,100 270,60 300,80"/>
    <line x1="0" y1="180" x2="0" y2="320" stroke="#3a2a14" stroke-width="1"/>
    <line x1="0" y1="320" x2="300" y2="320" stroke="#3a2a14" stroke-width="1"/>
  </g>
  <text x="1120" y="540" font-family="serif" font-style="italic" font-size="14" fill="#a87b3a" text-anchor="end">forex-for-soul.vercel.app</text>
</svg>
